<svg xmlns="http://www.w3.org/2000/svg" width="32" height="32" viewBox="0 0 32 32">
  <g id="discord" transform="translate(-889 -939)">
    <rect id="Rectangle_33506" data-name="Rectangle 33506" width="32" height="32" transform="translate(889 939)" fill="#fff" opacity="0"/>
    <path id="Path_3712" data-name="Path 3712" d="M80.321,66.6l-.294.336a13.992,13.992,0,0,1,5.235,2.67,17.138,17.138,0,0,0-6.328-2.018,17.789,17.789,0,0,0-4.247.042,2.071,2.071,0,0,0-.357.042A15.788,15.788,0,0,0,69.556,69c-.778.357-1.24.61-1.24.61a14.183,14.183,0,0,1,5.529-2.754l-.21-.252a10.4,10.4,0,0,0-5.908,2.207A28.154,28.154,0,0,0,64.7,81.064s1.766,3.048,6.412,3.2c0,0,.778-.946,1.409-1.745a6.539,6.539,0,0,1-3.679-2.481s.21.147.589.357a.29.29,0,0,0,.084.063c.063.042.126.063.189.105a12.321,12.321,0,0,0,1.535.715,17.649,17.649,0,0,0,3.09.9,14.727,14.727,0,0,0,5.445.021,13.838,13.838,0,0,0,3.048-.9,12.031,12.031,0,0,0,2.418-1.24,6.634,6.634,0,0,1-3.805,2.5c.631.8,1.388,1.7,1.388,1.7a7.685,7.685,0,0,0,6.433-3.2,28.154,28.154,0,0,0-3.027-12.257A10.4,10.4,0,0,0,80.321,66.6ZM73.046,79.108a2.342,2.342,0,0,1,0-4.667,2.342,2.342,0,0,1,0,4.667Zm7.674,0a2.342,2.342,0,1,1,2.144-2.334A2.254,2.254,0,0,1,80.72,79.108Z" transform="translate(828.449 879.571)" fill="#ffffff"/>
  </g>
</svg>
