<svg xmlns="http://www.w3.org/2000/svg" width="32" height="32" viewBox="0 0 32 32">
  <g id="medium" transform="translate(-889 -939)">
    <rect id="Rectangle_33503" data-name="Rectangle 33503" width="32" height="32" transform="translate(889 939)" fill="#fff" opacity="0"/>
    <path id="Shape" d="M33.268,47.1a.74.74,0,0,0-.241-.625l-1.786-2.151V44h5.544l4.286,9.4L44.839,44h5.285v.321L48.6,45.785a.446.446,0,0,0-.17.428V56.968a.446.446,0,0,0,.17.428l1.491,1.464v.321h-7.5v-.321l1.545-1.5c.152-.152.152-.2.152-.428V48.24L39.991,59.146h-.58l-5-10.907v7.31a1.009,1.009,0,0,0,.277.839L36.7,58.825v.321H31v-.321l2.009-2.437a.973.973,0,0,0,.259-.839Z" transform="translate(864.971 903.409)" fill="#ffffff"/>
  </g>
</svg>
