<svg xmlns="http://www.w3.org/2000/svg" width="32" height="32" viewBox="0 0 32 32">
  <g id="twitter" transform="translate(-997 -939)">
    <rect id="Rectangle_33501" data-name="Rectangle 33501" width="32" height="32" transform="translate(997 939)" fill="#fff" opacity="0"/>
    <path id="Path_3851" data-name="Path 3851" d="M72.515,70.9a9.237,9.237,0,0,1-2.653.727,4.634,4.634,0,0,0,2.031-2.556,9.244,9.244,0,0,1-2.933,1.121A4.623,4.623,0,0,0,61.088,74.4a13.114,13.114,0,0,1-9.521-4.826A4.624,4.624,0,0,0,53,75.745a4.6,4.6,0,0,1-2.092-.578c0,.019,0,.039,0,.058a4.622,4.622,0,0,0,3.705,4.529,4.63,4.63,0,0,1-2.086.079,4.624,4.624,0,0,0,4.315,3.208A9.267,9.267,0,0,1,51.1,85.02a9.37,9.37,0,0,1-1.1-.065A13.136,13.136,0,0,0,70.223,73.888q0-.3-.013-.6A9.385,9.385,0,0,0,72.515,70.9Z" transform="translate(952.809 878.471)" fill="#ffffff"/>
  </g>
</svg>
