<svg xmlns="http://www.w3.org/2000/svg" width="149.999" height="30.001" viewBox="0 0 149.999 30.001">
  <g id="discord" transform="translate(0 0)">
    <path id="Subtraction_18" data-name="Subtraction 18" d="M-1705-197h-110.047A17.976,17.976,0,0,0-1807-212a17.978,17.978,0,0,0-8.046-15H-1705a14.9,14.9,0,0,1,10.606,4.393A14.9,14.9,0,0,1-1690-212a14.9,14.9,0,0,1-4.393,10.607A14.9,14.9,0,0,1-1705-197Zm-18.806-12.708c-.2,0-.306.109-.306.324v.63a2.721,2.721,0,0,0,.738,2.034,2.854,2.854,0,0,0,2.07.72h1.566a2.854,2.854,0,0,0,2.07-.72,2.721,2.721,0,0,0,.738-2.034V-209.8a1.823,1.823,0,0,0-1.44-2.016,1.9,1.9,0,0,0,1.44-2.016v-.99a2.721,2.721,0,0,0-.738-2.034,2.854,2.854,0,0,0-2.07-.72h-1.566a2.854,2.854,0,0,0-2.07.72,2.722,2.722,0,0,0-.738,2.034v.558a.271.271,0,0,0,.306.306h1.152a.271.271,0,0,0,.306-.306v-.522a1.341,1.341,0,0,1,.315-.99,1.368,1.368,0,0,1,.981-.306h1.062a1.165,1.165,0,0,1,1.332,1.3v.936a1.173,1.173,0,0,1-1.332,1.314h-.99c-.2,0-.306.109-.306.324v.81a.271.271,0,0,0,.306.306h.99a1.173,1.173,0,0,1,1.332,1.314v.99a1.165,1.165,0,0,1-1.332,1.3h-1.062a1.345,1.345,0,0,1-.981-.315,1.344,1.344,0,0,1-.315-.981v-.594c0-.215-.1-.324-.306-.324Zm-4.212-5.994v9.4a.271.271,0,0,0,.306.306h1.17c.191,0,.288-.1.288-.306v-10.962a.271.271,0,0,0-.306-.306h-1.08a1.216,1.216,0,0,0-.576.2l-1.872,1.134a.469.469,0,0,0-.252.432v1.062c0,.154.056.232.166.232a.5.5,0,0,0,.194-.052l1.961-1.133Zm-10.746,5.994c-.2,0-.306.109-.306.324v.63a2.721,2.721,0,0,0,.738,2.034,2.854,2.854,0,0,0,2.07.72h1.566a2.853,2.853,0,0,0,2.07-.72,2.721,2.721,0,0,0,.738-2.034V-209.8a1.823,1.823,0,0,0-1.44-2.016,1.9,1.9,0,0,0,1.44-2.016v-.99a2.721,2.721,0,0,0-.738-2.034,2.854,2.854,0,0,0-2.07-.72h-1.566a2.854,2.854,0,0,0-2.07.72,2.721,2.721,0,0,0-.738,2.034v.558a.271.271,0,0,0,.306.306h1.152a.271.271,0,0,0,.306-.306v-.522a1.341,1.341,0,0,1,.315-.99,1.368,1.368,0,0,1,.981-.306h1.062a1.165,1.165,0,0,1,1.332,1.3v.936a1.173,1.173,0,0,1-1.332,1.314h-.99c-.2,0-.306.109-.306.324v.81a.271.271,0,0,0,.306.306h.99a1.173,1.173,0,0,1,1.332,1.314v.99a1.165,1.165,0,0,1-1.332,1.3h-1.062a1.345,1.345,0,0,1-.981-.315,1.344,1.344,0,0,1-.315-.981v-.594c0-.215-.1-.324-.306-.324Zm-7.83.918c-.2,0-.306.1-.306.288v2.178c0,.215.1.324.306.324h1.224c.191,0,.288-.1.288-.306v-2.2a.255.255,0,0,0-.288-.288Zm-8.208-8.784a.271.271,0,0,0-.306.306v10.962a.271.271,0,0,0,.306.306h5.76c.191,0,.288-.1.288-.306v-.918c0-.2-.1-.306-.288-.306h-4.1c-.143,0-.216-.067-.216-.2v-3.2c0-.119.073-.18.216-.18h3.474c.215,0,.324-.1.324-.306v-.918c0-.2-.109-.306-.324-.306h-3.474c-.143,0-.216-.061-.216-.18v-3.042c0-.119.073-.18.216-.18h4.1c.191,0,.288-.1.288-.306v-.918c0-.2-.1-.306-.288-.306Zm-9.072,3.546h.072l4.32,7.74a.539.539,0,0,0,.468.288h.972a.271.271,0,0,0,.306-.306v-10.962a.271.271,0,0,0-.306-.306h-1.116a.271.271,0,0,0-.306.306v7.722h-.072l-4.356-7.83a.412.412,0,0,0-.4-.2h-1.008a.271.271,0,0,0-.306.306v10.962a.271.271,0,0,0,.306.306h1.116a.271.271,0,0,0,.306-.306v-7.721Zm-5.886-3.546a.271.271,0,0,0-.306.306v10.962a.271.271,0,0,0,.306.306h1.134a.271.271,0,0,0,.306-.306v-10.962a.271.271,0,0,0-.306-.306Zm-8.19,0a.271.271,0,0,0-.306.306v10.962a.271.271,0,0,0,.306.306h5.832a.271.271,0,0,0,.306-.306v-.936c0-.215-.1-.324-.306-.324h-4.176c-.143,0-.216-.061-.216-.18v-9.522a.271.271,0,0,0-.306-.306Zm-9.072,3.546h.072l4.32,7.74a.538.538,0,0,0,.468.288h.972a.271.271,0,0,0,.306-.306v-10.962a.271.271,0,0,0-.306-.306h-1.116a.271.271,0,0,0-.306.306v7.722h-.072l-4.356-7.83a.412.412,0,0,0-.4-.2h-1.008a.271.271,0,0,0-.306.306v10.962a.271.271,0,0,0,.306.306h1.116a.271.271,0,0,0,.306-.306v-7.721Zm-9.054-3.546a2.8,2.8,0,0,0-2.061.729,2.8,2.8,0,0,0-.729,2.061v5.994a2.807,2.807,0,0,0,.729,2.052,2.779,2.779,0,0,0,2.061.738h2.088a2.811,2.811,0,0,0,2.07-.738,2.786,2.786,0,0,0,.738-2.052v-5.994a2.778,2.778,0,0,0-.738-2.061,2.832,2.832,0,0,0-2.07-.729Zm49.482,2.394a.271.271,0,0,0-.306.306v2.142c0,.227.1.342.306.342h1.224c.191,0,.288-.1.288-.306v-2.2a.255.255,0,0,0-.288-.288Zm-47.664,7.65h-1.566a1.165,1.165,0,0,1-1.3-1.332v-5.85a1.165,1.165,0,0,1,1.3-1.332h1.566a1.173,1.173,0,0,1,1.314,1.332v5.85A1.173,1.173,0,0,1-1794.258-207.53Z" transform="translate(1840 227)" fill="#c1c1c1"/>
    <g id="discord_mouseover" data-name="discord mouseover" transform="translate(-0.002 0)">
      <path id="Subtraction_17" data-name="Subtraction 17" d="M-1831-203a14.9,14.9,0,0,1-10.606-4.393A14.9,14.9,0,0,1-1846-218a14.9,14.9,0,0,1,4.393-10.607A14.9,14.9,0,0,1-1831-233a14.9,14.9,0,0,1,10.607,4.393A14.9,14.9,0,0,1-1816-218a14.9,14.9,0,0,1-4.393,10.607A14.9,14.9,0,0,1-1831-203Zm-2.757-23.278a9.81,9.81,0,0,0-5.516,2.069,26.491,26.491,0,0,0-2.838,11.491,7.183,7.183,0,0,0,6.011,3s.73-.889,1.32-1.636a6.185,6.185,0,0,1-3.449-2.325s.2.137.552.335a.275.275,0,0,0,.079.059.777.777,0,0,0,.091.051.837.837,0,0,1,.086.047,11.388,11.388,0,0,0,1.439.671,16.542,16.542,0,0,0,2.9.848,14.428,14.428,0,0,0,2.635.248,13.437,13.437,0,0,0,2.469-.228,12.941,12.941,0,0,0,2.858-.848,11.335,11.335,0,0,0,2.262-1.16,6.3,6.3,0,0,1-3.564,2.343c.558.706,1.226,1.506,1.3,1.6a7.26,7.26,0,0,0,6.032-2.995,26.552,26.552,0,0,0-2.839-11.491,9.808,9.808,0,0,0-5.516-2.069h-.022l-.276.315a13.193,13.193,0,0,1,4.908,2.5,16.16,16.16,0,0,0-5.933-1.892,16.594,16.594,0,0,0-1.823-.1,16.679,16.679,0,0,0-2.159.14,1.649,1.649,0,0,0-.292.032l-.043.007a14.758,14.758,0,0,0-4.474,1.241c-.689.317-1.117.546-1.163.571l0-.006a13.771,13.771,0,0,1,5.18-2.575l-.2-.237Zm6.664,11.727a2.107,2.107,0,0,1-2.01-2.188,2.107,2.107,0,0,1,2.01-2.188,2.107,2.107,0,0,1,2.01,2.188A2.107,2.107,0,0,1-1827.092-214.55Zm-7.194,0a2.107,2.107,0,0,1-2.011-2.188,2.107,2.107,0,0,1,2.011-2.188,1.935,1.935,0,0,1,1.385.592,2.232,2.232,0,0,1,.625,1.6A2.107,2.107,0,0,1-1834.286-214.55Z" transform="translate(1846 233)" fill="#c1c1c1"/>
    </g>
  </g>
</svg>
