<svg xmlns="http://www.w3.org/2000/svg" width="32" height="32" viewBox="0 0 32 32">
  <g id="discord_mouseover" data-name="discord mouseover" transform="translate(-0.002 0)">
    <path id="Subtraction_17" data-name="Subtraction 17" d="M16,32A16,16,0,0,1,4.686,4.687,16,16,0,0,1,27.313,27.314,15.9,15.9,0,0,1,16,32Zm8.684-11.372a6.72,6.72,0,0,1-3.8,2.5c.622.786,1.38,1.694,1.388,1.7a7.752,7.752,0,0,0,6.433-3.2A28.4,28.4,0,0,0,25.675,9.378a10.465,10.465,0,0,0-5.884-2.207h-.023l-.294.336a14.146,14.146,0,0,1,5.235,2.67A17.245,17.245,0,0,0,18.38,8.159a17.772,17.772,0,0,0-4.246.041,1.713,1.713,0,0,0-.3.033l-.058.01A15.782,15.782,0,0,0,9,9.568c-.768.352-1.236.607-1.24.609l0-.006a14.656,14.656,0,0,1,5.525-2.748l-.21-.252h-.024A10.466,10.466,0,0,0,7.174,9.378,28.306,28.306,0,0,0,4.147,21.635a7.658,7.658,0,0,0,6.412,3.2s.785-.954,1.409-1.745a6.631,6.631,0,0,1-3.679-2.48s.208.146.589.357a.3.3,0,0,0,.084.063.832.832,0,0,0,.094.053.834.834,0,0,1,.095.053,12.189,12.189,0,0,0,1.535.715,17.544,17.544,0,0,0,3.09.9,15.37,15.37,0,0,0,2.812.265,14.348,14.348,0,0,0,2.634-.244,13.748,13.748,0,0,0,3.048-.9A12.012,12.012,0,0,0,24.683,20.629Zm-4.516-.948a2.248,2.248,0,0,1-2.145-2.334,2.248,2.248,0,0,1,2.145-2.334,2.248,2.248,0,0,1,2.145,2.334A2.248,2.248,0,0,1,20.167,19.68Zm-7.673,0a2.248,2.248,0,0,1-2.145-2.334,2.248,2.248,0,0,1,2.145-2.334,2.063,2.063,0,0,1,1.477.631,2.379,2.379,0,0,1,.666,1.7A2.247,2.247,0,0,1,12.494,19.68Z" transform="translate(0.002 0)" fill="#a5a5a5"/>
  </g>
</svg>
