<svg id="medium" xmlns="http://www.w3.org/2000/svg" xmlns:xlink="http://www.w3.org/1999/xlink" width="32" height="32" viewBox="0 0 32 32">
  <defs>
    <clipPath id="clip-path">
      <rect id="Rectangle_20674" data-name="Rectangle 20674" width="32" height="32" fill="none"/>
    </clipPath>
  </defs>
  <g id="Group_23907" data-name="Group 23907" transform="translate(0 0)" clip-path="url(#clip-path)">
    <path id="Path_86395" data-name="Path 86395" d="M16,32a16,16,0,1,1,11.3-4.7A16,16,0,0,1,16,32m4.3-19.3h0v8.7c0,.2,0,.3-.2.4l-1.5,1.5v.3h7.5v-.3l-1.5-1.5a.4.4,0,0,1-.2-.4V10.6a.4.4,0,0,1,.2-.4l1.5-1.5V8.4H20.8L17,17.8,12.8,8.4H7.2v.3L9,10.9a.7.7,0,0,1,.2.6V20a1,1,0,0,1-.3.8L7,23.2v.3h5.7v-.3l-2-2.4a1,1,0,0,1-.3-.8V12.7l5,10.9H16Z" transform="translate(0 0)" fill="#a5a5a5"/>
  </g>
</svg>
