<svg id="telegram" xmlns="http://www.w3.org/2000/svg" xmlns:xlink="http://www.w3.org/1999/xlink" width="32" height="32" viewBox="0 0 32 32">
  <defs>
    <clipPath id="clip-path">
      <rect id="Rectangle_20675" data-name="Rectangle 20675" width="32" height="32" fill="none"/>
    </clipPath>
  </defs>
  <g id="Group_23908" data-name="Group 23908" transform="translate(0 0)" clip-path="url(#clip-path)">
    <path id="Path_86396" data-name="Path 86396" d="M16,32a16,16,0,1,1,11.3-4.7A16,16,0,0,1,16,32m-.3-10.1h0l5,3.7a1,1,0,0,0,1.5-.2l.2-.4L25.7,9.1A.976.976,0,0,0,24.4,8L4.9,15.5A.7.7,0,0,0,5,16.8l4.9,1.5,1.8,5.8a.8.8,0,0,0,1.1.6l.4-.2Zm-3.4,1h-.1l-1.4-4.6a.5.5,0,0,1,.2-.6l10.6-6.6h.1l.2.2a.2.2,0,0,1-.1.3l-9,8-.2.3L12.3,23h-.1" transform="translate(0 0)" fill="#a5a5a5"/>
  </g>
</svg>
