<svg id="yt" xmlns="http://www.w3.org/2000/svg" width="30" height="30" viewBox="0 0 30 30">
  <g id="youtube" transform="translate(-943 -939)">
    <path id="Subtraction_6" data-name="Subtraction 6" d="M515-176a14.9,14.9,0,0,1-10.606-4.393A14.9,14.9,0,0,1,500-191a14.9,14.9,0,0,1,4.393-10.607A14.9,14.9,0,0,1,515-206a14.9,14.9,0,0,1,10.607,4.393A14.9,14.9,0,0,1,530-191a14.9,14.9,0,0,1-4.393,10.606A14.9,14.9,0,0,1,515-176Zm-.038-16.655c-1.964,0-3.955.021-5.919.063a2.531,2.531,0,0,0-2.462,2.517v6.16a2.531,2.531,0,0,0,2.462,2.518c1.978.042,3.969.064,5.918.064s3.941-.021,5.917-.064a2.532,2.532,0,0,0,2.464-2.518v-6.16a2.531,2.531,0,0,0-2.464-2.517C518.916-192.634,516.925-192.655,514.961-192.655Zm-.563-7.2a1.48,1.48,0,0,0-1.479,1.479v2.894A1.48,1.48,0,0,0,514.4-194a1.48,1.48,0,0,0,1.479-1.479v-2.894A1.48,1.48,0,0,0,514.4-199.856Zm2.345.14v4.766a1.487,1.487,0,0,0,.067.416.614.614,0,0,0,.632.468,1.046,1.046,0,0,0,.207-.022,1.387,1.387,0,0,0,.656-.341c.072-.063.139-.131.21-.2l.108-.109v.6h1.032v-5.574h-1.032v4.145a.155.155,0,0,1-.016.092,1.084,1.084,0,0,1-.495.382.316.316,0,0,1-.1.019.231.231,0,0,1-.226-.218.969.969,0,0,1-.014-.168v-4.251Zm-7.5-1.971h0s.9,2.994,1.307,4.33a.53.53,0,0,1,.022.151v3.062h1.084v-3.062a.532.532,0,0,1,.021-.151c.4-1.336,1.307-4.33,1.307-4.33h-1.175s-.1.433-.23.977c-.151.642-.343,1.454-.464,1.962-.224-.945-.694-2.939-.694-2.939h-1.175ZM520.422-183.2a1.467,1.467,0,0,1-.618-.125,1.334,1.334,0,0,1-.763-.972,2.918,2.918,0,0,1-.074-.627c-.007-.716-.005-1.436,0-2.133v-.333a1.66,1.66,0,0,1,.4-1.156,1.446,1.446,0,0,1,1.126-.489c.049,0,.09,0,.131,0a1.747,1.747,0,0,1,.438.08,1.221,1.221,0,0,1,.832.988,3.054,3.054,0,0,1,.056.56c.006.38,0,1.164,0,1.395v.01H520.01v1.385a.451.451,0,0,0,.45.451.451.451,0,0,0,.45-.451v-.712h1.038a.058.058,0,0,1,0,.016,4.765,4.765,0,0,1-.117,1.208,1.238,1.238,0,0,1-1.066.874A2.343,2.343,0,0,1,520.422-183.2Zm.038-4.885a.451.451,0,0,0-.45.451v.778h.9v-.778A.451.451,0,0,0,520.46-188.081Zm-8.367,4.813a.892.892,0,0,1-.152-.013.582.582,0,0,1-.456-.364,1.387,1.387,0,0,1-.1-.581c0-.625,0-3.446,0-4.631v-.031h1.005c0,.033.005,2.889.006,4.188a1.083,1.083,0,0,0,.015.222.242.242,0,0,0,.237.219.338.338,0,0,0,.116-.022,1.1,1.1,0,0,0,.487-.382.178.178,0,0,0,.019-.1v-4.13l1.008,0v5.545h-1.007v-.61l-.036.038-.039.043a1.838,1.838,0,0,1-.777.557A.99.99,0,0,1,512.094-183.268Zm5.168-.01h-.014a1.131,1.131,0,0,1-.859-.392l-.1-.1v.421h-1.01v-7.506h1.01v2.469a.116.116,0,0,1,.009-.018.994.994,0,0,1,.1-.152,1.161,1.161,0,0,1,.581-.37,1.03,1.03,0,0,1,.251-.031.851.851,0,0,1,.8.507,1.936,1.936,0,0,1,.16.842c0,.953,0,1.954,0,3.148a1.832,1.832,0,0,1-.084.579A.826.826,0,0,1,517.262-183.279Zm-.469-.86h.021a.318.318,0,0,0,.3-.216l0-.005a.015.015,0,0,0,0-.005.5.5,0,0,0,.015-.054.815.815,0,0,0,.019-.168v-.022q0-.369,0-.738t0-.738q0-.738,0-1.477a.889.889,0,0,0-.07-.313.321.321,0,0,0-.24-.2l-.063-.011-.05,0H516.7a.439.439,0,0,0-.168.042.483.483,0,0,0-.073.04l-.038.026-.058.048a.276.276,0,0,0-.069.1l0,2.223v1.193l.018.024.015.019a.866.866,0,0,0,.137.122.586.586,0,0,0,.147.076.514.514,0,0,0,.068.019.462.462,0,0,0,.068.011l.046,0h0Zm-6.591.787h-1.138v-6.43h-1.178v-1.076h3.5v1.074H510.2v6.432ZM514.4-195a.427.427,0,0,1-.427-.427v-3.011a.427.427,0,0,1,.427-.427.427.427,0,0,1,.427.427v3.011A.427.427,0,0,1,514.4-195Z" transform="translate(443 1145)" fill="#c1c1c1"/>
  </g>
</svg>
