<svg xmlns="http://www.w3.org/2000/svg" xmlns:xlink="http://www.w3.org/1999/xlink" width="340" height="741.524" viewBox="0 0 340 741.524">
  <defs>
    <clipPath id="clip-path">
      <path id="Path_252334" data-name="Path 252334" d="M169.885,0h-.131l-.182,0a13.728,13.728,0,0,0-3.147.432L64.717,22.6h0L13.874,33.673l-.738.18A17.2,17.2,0,0,0,0,50.609v4.033H0L0,206.268h0v16.826h0v64.84a13.589,13.589,0,0,0,13.589,13.589H169.748a14.175,14.175,0,0,0,3.526-.442l.083-.021.084-.019,152.4-33.092.673-.165A17.641,17.641,0,0,0,339.991,250.6l0-237.012A13.589,13.589,0,0,0,326.4,0Z" transform="translate(0.007)" fill="#306e81"/>
    </clipPath>
  </defs>
  <g id="bg-glass-shape-mobile" transform="translate(-369.993 -3388.656)">
    <g id="bg-shape-mobile" transform="translate(370 3388.656)" fill="#388097">
      <path d="M169.885,0h-.131l-.182,0a13.728,13.728,0,0,0-3.147.432L64.717,22.6h0L13.874,33.673l-.738.18A17.2,17.2,0,0,0,0,50.609v4.033H0l0,673.293a13.589,13.589,0,0,0,13.589,13.589H169.748a14.176,14.176,0,0,0,3.526-.442l.083-.021.084-.019,152.4-33.092.673-.165A17.641,17.641,0,0,0,339.991,690.6l0-677.012A13.589,13.589,0,0,0,326.4,0Z" stroke="none"/>
      <path d="M 169.7908782958984 3 L 169.6370239257812 3.00390625 C 168.8016204833984 3.02178955078125 167.9731140136719 3.13531494140625 167.1746215820312 3.3411865234375 L 167.0642242431641 3.36737060546875 L 14.55130004882812 36.59527587890625 L 13.84820556640625 36.7669677734375 C 7.4591064453125 38.3291015625 2.996826171875 44.02105712890625 2.996826171875 50.60888671875 L 2.997222900390625 54.6422119140625 L 2.992919921875 727.934814453125 C 2.992919921875 733.7738037109375 7.74322509765625 738.524169921875 13.58212280273438 738.524169921875 L 169.7456207275391 738.5233154296875 C 170.7007141113281 738.5224609375 171.6358184814453 738.40576171875 172.5248260498047 738.1765747070312 L 172.6915130615234 738.1351928710938 L 172.8048248291016 738.1095581054688 L 325.1694946289062 705.0254516601562 L 325.8039245605469 704.8701171875 C 332.390625 703.259765625 336.9908142089844 697.3922729492188 336.9908142089844 690.6012573242188 L 336.992919921875 13.58917236328125 C 336.992919921875 7.75030517578125 332.2426147460938 3 326.4037170410156 3 L 169.7908782958984 3 M 169.7546234130859 0 L 326.4037170410156 0 C 333.9087219238281 0 339.992919921875 6.08416748046875 339.992919921875 13.58917236328125 L 339.9908142089844 690.6012573242188 C 339.9908142089844 698.778564453125 334.4504089355469 705.8446044921875 326.5163269042969 707.7843017578125 L 325.8433227539062 707.9490966796875 L 173.3570251464844 741.0604858398438 L 173.2740173339844 741.0814819335938 C 172.1426239013672 741.373291015625 170.9563140869141 741.5222778320312 169.7481231689453 741.5233154296875 L 169.680419921875 741.524169921875 L 13.58212280273438 741.524169921875 C 6.077117919921875 741.524169921875 -0.007080078125 735.4400024414062 -0.007080078125 727.934814453125 L -0.002777099609375 54.6422119140625 L -0.003173828125 54.6422119140625 L -0.003173828125 50.60888671875 C -0.003173828125 42.63446044921875 5.400115966796875 35.74407958984375 13.13571166992188 33.852783203125 L 13.87371826171875 33.672607421875 L 166.4256134033203 0.4361572265625 C 167.4573211669922 0.170166015625 168.5053253173828 0.0274658203125 169.5727233886719 0.00457763671875 L 169.7546234130859 0 Z" stroke="none" fill="rgba(102,250,251,0.1)"/>
    </g>
    <g id="Mask_Group_134" data-name="Mask Group 134" transform="translate(369.993 3409.656)" clip-path="url(#clip-path)">
      <rect id="Rectangle_45835" data-name="Rectangle 45835" width="817.436" height="85.5" transform="matrix(0.978, -0.208, 0.208, 0.978, -277.369, 150.331)" fill="#66fafb" opacity="0.05"/>
      <rect id="Rectangle_45836" data-name="Rectangle 45836" width="817.436" height="19.355" transform="matrix(0.978, -0.208, 0.208, 0.978, -266.854, 246.294)" fill="#66fafb" opacity="0.05"/>
      <rect id="Rectangle_45837" data-name="Rectangle 45837" width="817.436" height="11.244" transform="matrix(0.978, -0.208, 0.208, 0.978, -266.854, 275.54)" fill="#66fafb" opacity="0.05"/>
    </g>
  </g>
</svg>
