<svg xmlns="http://www.w3.org/2000/svg" xmlns:xlink="http://www.w3.org/1999/xlink" width="1180.007" height="1046.473" viewBox="0 0 1180.007 1046.473">
  <defs>
    <clipPath id="clip-path">
      <path id="Path_252334" data-name="Path 252334" d="M589.624,0h-.454l-.631.016a47.646,47.646,0,0,0-10.922,1.5L224.624,78.42h0L48.168,116.864l-2.561.625a59.7,59.7,0,0,0-45.6,58.154v14h0L0,715.877H0v58.4H-.007V999.309a47.163,47.163,0,0,0,47.163,47.163H588.912l.235,0a49.188,49.188,0,0,0,12.237-1.533l.288-.073.293-.067,528.928-114.85,2.336-.572a61.224,61.224,0,0,0,46.765-59.636L1180,47.163A47.163,47.163,0,0,0,1132.837,0Z" transform="translate(370 3388.656)" fill="#306e81"/>
    </clipPath>
  </defs>
  <g id="bg-glass-shape" transform="translate(-369.993 -3388.656)">
    <g id="bg-shape" transform="translate(370 3388.656)" fill="#388097">
      <path d="M589.624,0h-.454l-.631.016a47.646,47.646,0,0,0-10.922,1.5L224.624,78.42h0L48.168,116.864l-2.561.625a59.7,59.7,0,0,0-45.6,58.154v14h0L0,715.877H0v58.4H-.007V999.309a47.163,47.163,0,0,0,47.163,47.163H588.912l.235,0a49.188,49.188,0,0,0,12.237-1.533l.288-.073.293-.067,528.928-114.85,2.336-.572a61.224,61.224,0,0,0,46.765-59.636L1180,47.163A47.163,47.163,0,0,0,1132.837,0Z" stroke="none"/>
      <path d="M 589.208984375 3 L 588.602294921875 3.015380859375 C 585.1333618164062 3.089599609375 581.6889038085938 3.561767578125 578.3649291992188 4.4188232421875 L 578.2544555664062 4.445068359375 L 48.845703125 119.7869873046875 L 46.3187255859375 120.4038696289062 C 20.8170166015625 126.638916015625 3.0064697265625 149.3543090820312 3.0064697265625 175.6437377929688 L 3.0076904296875 189.6415405273438 L 3 777.274169921875 L 2.992919921875 777.274169921875 L 2.992919921875 999.3092651367188 C 2.992919921875 1005.2724609375 4.16015625 1011.055847167969 6.4622802734375 1016.498657226562 C 8.6864013671875 1021.757263183594 11.8712158203125 1026.48046875 15.927978515625 1030.537353515625 C 19.98486328125 1034.594360351562 24.7081298828125 1037.779052734375 29.9666748046875 1040.003295898438 C 35.4091796875 1042.305419921875 41.1925048828125 1043.47265625 47.1556396484375 1043.47265625 L 588.8931274414062 1043.47265625 L 589.1445922851562 1043.469360351562 C 593.0804443359375 1043.46630859375 596.9461669921875 1042.982421875 600.6346435546875 1042.031372070312 L 600.6495361328125 1042.027587890625 L 601.0035400390625 1041.93896484375 L 601.328125 1041.864990234375 L 1130.218627929688 927.0230102539062 L 1132.515380859375 926.46044921875 C 1158.703125 920.058349609375 1176.992919921875 896.7335815429688 1176.992919921875 869.7389526367188 L 1177 47.16265869140625 C 1177 41.1995849609375 1175.832763671875 35.41632080078125 1173.530639648438 29.97369384765625 C 1171.306518554688 24.71527099609375 1168.121704101562 19.9918212890625 1164.06494140625 15.93505859375 C 1160.008056640625 11.8782958984375 1155.284790039062 8.693603515625 1150.0263671875 6.4693603515625 C 1144.583740234375 4.167236328125 1138.800415039062 3 1132.837280273438 3 L 589.208984375 3 M 589.1693725585938 0 L 1132.837280273438 0 C 1158.884155273438 0 1180 21.1158447265625 1180 47.16265869140625 L 1179.992919921875 869.7389526367188 C 1179.992919921875 898.1195678710938 1160.76416015625 922.642822265625 1133.227783203125 929.3746337890625 L 1130.892333984375 929.9466552734375 L 601.9647827148438 1044.796630859375 L 601.6719970703125 1044.863525390625 L 601.3836669921875 1044.936279296875 C 597.4570922851562 1045.948974609375 593.33984375 1046.466186523438 589.1469116210938 1046.469360351562 L 588.9119873046875 1046.47265625 L 47.1556396484375 1046.47265625 C 21.1087646484375 1046.47265625 -0.007080078125 1025.356689453125 -0.007080078125 999.3092651367188 L -0.007080078125 774.274169921875 L 0 774.274169921875 L 0.0006103515625 715.876953125 L 0.0076904296875 189.6415405273438 L 0.0064697265625 189.6415405273438 L 0.0064697265625 175.6437377929688 C 0.0064697265625 147.9677124023438 18.759033203125 124.0537109375 45.6063232421875 117.4896850585938 L 48.167724609375 116.8643188476562 L 577.6158447265625 1.513916015625 C 581.1962890625 0.590576171875 584.8333740234375 0.09521484375 588.5381469726562 0.0159912109375 L 589.1693725585938 0 Z" stroke="none" fill="rgba(102,250,251,0.1)"/>
    </g>
    <g id="Mask_Group_134" data-name="Mask Group 134" clip-path="url(#clip-path)">
      <rect id="Rectangle_45835" data-name="Rectangle 45835" width="2837" height="296.738" transform="matrix(0.978, -0.208, 0.208, 0.978, -592.645, 3910.397)" fill="#66fafb" opacity="0.05"/>
      <rect id="Rectangle_45836" data-name="Rectangle 45836" width="2837" height="67.175" transform="matrix(0.978, -0.208, 0.208, 0.978, -556.151, 4243.444)" fill="#66fafb" opacity="0.05"/>
      <rect id="Rectangle_45837" data-name="Rectangle 45837" width="2837" height="39.025" transform="matrix(0.978, -0.208, 0.208, 0.978, -556.151, 4344.946)" fill="#66fafb" opacity="0.05"/>
    </g>
  </g>
</svg>
