<svg xmlns="http://www.w3.org/2000/svg" width="171" height="95" viewBox="0 0 171 95">
  <path id="button-stroke" d="M170,67.057a9.248,9.248,0,0,1-6.737,9.092l-.337.087-76.2,17.509-.042.01-.041.011A6.72,6.72,0,0,1,84.878,94h-.034a6.862,6.862,0,0,1-1.753-.238l-.041-.011-.042-.01L7.036,76.226l-.3-.077A9.248,9.248,0,0,1,0,67.057V54.9H0V46H0V28.911H0V26.777A9.018,9.018,0,0,1,6.57,17.911l.369-.1,25.422-5.861h0L83.216.231A6.5,6.5,0,0,1,84.789,0l.091,0h.065a6.621,6.621,0,0,1,1.723.231l50.18,11.57h0l26.12,6.022.343.089a9.017,9.017,0,0,1,6.568,8.865v2.134h0V46h0Z" transform="translate(0.5 0.5)" fill="rgba(255,255,255,0)" stroke="#a5a5a5" stroke-width="1"/>
</svg>
