<svg xmlns="http://www.w3.org/2000/svg" width="170" height="94" viewBox="0 0 170 94">
  <path id="hex-button" d="M169.884,46h0V28.911h0V26.777a9.017,9.017,0,0,0-6.568-8.865l-.343-.089L136.853,11.8h0L86.668.231A6.621,6.621,0,0,0,84.946,0H84.88l-.091,0a6.5,6.5,0,0,0-1.573.229L32.361,11.955h0L6.939,17.816l-.369.1A9.018,9.018,0,0,0,0,26.777v2.134H0V46H0v8.9H0V67.057a9.248,9.248,0,0,0,6.737,9.092l.3.077L83.008,93.74l.042.01.041.011A6.862,6.862,0,0,0,84.844,94h.034a6.72,6.72,0,0,0,1.763-.234l.041-.011.042-.01,76.2-17.509.337-.087A9.248,9.248,0,0,0,170,67.057" fill="#66fafb"/>
</svg>
