<svg xmlns="http://www.w3.org/2000/svg" width="340" height="339.999" viewBox="0 0 340 339.999">
  <path id="nfts-shape-mobile" d="M340,289.017a17.658,17.658,0,0,1-13.475,17.2l-.673.165-152.4,33.131-.084.019-.083.021a14.162,14.162,0,0,1-3.526.443h-.067a14.458,14.458,0,0,1-3.507-.451l-.082-.022-.083-.019L14.073,306.367l-.6-.146A17.658,17.658,0,0,1,0,289.017v-23H0V249.169H0V54.705H0V50.667A17.219,17.219,0,0,1,13.141,33.892l.738-.18,50.843-11.09h0L166.432.437A13.684,13.684,0,0,1,169.578,0l.182,0h.131a13.951,13.951,0,0,1,3.445.437L273.7,22.33h.009l52.239,11.4.686.168a17.217,17.217,0,0,1,13.137,16.774v4.038h0V249.169h0Z" fill="#fff"/>
</svg>
