<svg xmlns="http://www.w3.org/2000/svg" xmlns:xlink="http://www.w3.org/1999/xlink" width="779.993" height="491.726" viewBox="0 0 779.993 491.726">
  <defs>
    <clipPath id="clip-path">
      <path id="Path_264344" data-name="Path 264344" d="M389.743,0h-.3l-.417.011a31.494,31.494,0,0,0-7.22.99L148.476,51.837h0L31.837,77.248l-1.693.413A39.465,39.465,0,0,0,0,116.1v9.253H0l-.01,335.2a31.175,31.175,0,0,0,31.175,31.175h358.1l.155,0a32.513,32.513,0,0,0,8.089-1.013l.19-.048.194-.044L747.526,414.7l1.544-.378a40.47,40.47,0,0,0,30.912-39.42l0-343.729A31.175,31.175,0,0,0,748.811,0Z" transform="translate(570.014 353.637)" fill="#388097" stroke="rgba(102,250,251,0.1)" stroke-width="3"/>
    </clipPath>
  </defs>
  <g id="popup-glass-shape" transform="translate(-570.007 -353.637)">
    <g id="popup-shape" transform="translate(570.014 353.637)" fill="#388097">
      <path d="M389.743,0h-.3l-.417.011a31.494,31.494,0,0,0-7.22.99L148.476,51.837h0L31.837,77.248l-1.693.413A39.465,39.465,0,0,0,0,116.1v9.253H0l-.01,335.2a31.175,31.175,0,0,0,31.175,31.175h358.1l.155,0a32.513,32.513,0,0,0,8.089-1.013l.19-.048.194-.044L747.526,414.7l1.544-.378a40.47,40.47,0,0,0,30.912-39.42l0-343.729A31.175,31.175,0,0,0,748.811,0Z" stroke="none"/>
      <path d="M 389.4797668457031 3 L 389.0898132324219 3.0098876953125 C 386.8752136230469 3.05718994140625 384.676513671875 3.358612060546875 382.5550231933594 3.90570068359375 L 382.4445190429688 3.931884765625 L 32.51434326171875 80.17092895507812 L 30.85614013671875 80.5758056640625 C 14.4559326171875 84.58560180664062 3.0018310546875 99.19439697265625 3.0018310546875 116.101806640625 L 3.00262451171875 125.3545837402344 L 2.992919921875 460.5508117675781 C 2.992919921875 464.355712890625 3.7374267578125 468.0452880859375 5.205810546875 471.5169982910156 C 6.62481689453125 474.8717041015625 8.65673828125 477.8851928710938 11.2452392578125 480.4737854003906 C 13.833740234375 483.0622863769531 16.84722900390625 485.0942993164062 20.201904296875 486.5133056640625 C 23.67340087890625 487.981689453125 27.3629150390625 488.7261962890625 31.167724609375 488.7261962890625 L 389.4257202148438 488.7239990234375 C 391.9419250488281 488.7221069335938 394.412109375 488.4130859375 396.7675170898438 487.8056945800781 L 397.0391235351562 487.73779296875 L 397.2641296386719 487.6865844726562 L 746.8502807617188 411.7783508300781 L 748.3572387695312 411.4093017578125 C 765.2109375 407.2890930175781 776.9817504882812 392.2774963378906 776.9817504882812 374.9039001464844 L 776.986328125 31.17489624023438 C 776.986328125 27.37008666992188 776.2418212890625 23.68060302734375 774.7734375 20.208984375 C 773.3545532226562 16.85430908203125 771.322509765625 13.84078979492188 768.7340087890625 11.25228881835938 C 766.1455078125 8.663787841796875 763.1320190429688 6.631805419921875 759.77734375 5.212890625 C 756.3057250976562 3.7445068359375 752.6162109375 3 748.8114013671875 3 L 389.4797668457031 3 M 389.4429321289062 0 L 748.8114013671875 0 C 766.0286254882812 0 779.986328125 13.95770263671875 779.986328125 31.17489624023438 L 779.9817504882812 374.9039001464844 C 779.9817504882812 393.6636047363281 767.2713012695312 409.8736877441406 749.0696411132812 414.323486328125 L 747.5258178710938 414.7015991210938 L 397.7072143554688 490.6625061035156 L 397.5167236328125 490.7106018066406 C 394.9211120605469 491.3800048828125 392.1996154785156 491.7218933105469 389.4280090332031 491.7239990234375 L 389.2727355957031 491.7261962890625 L 31.167724609375 491.7261962890625 C 13.95062255859375 491.7261962890625 -0.007080078125 477.7684020996094 -0.007080078125 460.5508117675781 L 0.00262451171875 125.3544921875 L 0.0018310546875 125.3544921875 L 0.0018310546875 116.101806640625 C 0.0018310546875 97.80780029296875 12.39739990234375 82.00048828125 30.14361572265625 77.66159057617188 L 31.83685302734375 77.24819946289062 L 381.8059387207031 1.000701904296875 C 384.1726379394531 0.390411376953125 386.5768127441406 0.062896728515625 389.0257263183594 0.010589599609375 L 389.4429321289062 0 Z" stroke="none" fill="rgba(102,250,251,0.1)"/>
    </g>
    <g id="Mask_Group_167" data-name="Mask Group 167" clip-path="url(#clip-path)">
      <rect id="Rectangle_45835" data-name="Rectangle 45835" width="1705.514" height="178.389" transform="matrix(0.978, -0.208, 0.208, 0.978, 29.045, 649.91)" fill="#66fafb" opacity="0.05"/>
      <rect id="Rectangle_45836" data-name="Rectangle 45836" width="1705.514" height="40.384" transform="matrix(0.978, -0.208, 0.208, 0.978, 50.983, 850.129)" fill="#66fafb" opacity="0.05"/>
      <rect id="Rectangle_45837" data-name="Rectangle 45837" width="1705.514" height="23.461" transform="matrix(0.978, -0.208, 0.208, 0.978, 50.983, 911.148)" fill="#66fafb" opacity="0.05"/>
    </g>
  </g>
</svg>
