<svg xmlns="http://www.w3.org/2000/svg" width="1919.997" height="1080" viewBox="0 0 1919.997 1080">
  <path id="top-bg-shape" d="M11524,21552H9604V20472h1920v1080Zm-1877-464.393h0v349.758a73.387,73.387,0,0,0,73.3,73.307h842.021l.362-.008a76.316,76.316,0,0,0,19.018-2.385l.449-.115.454-.1,822.079-178.508,3.629-.885a95.165,95.165,0,0,0,72.685-92.691v-646.615a73.384,73.384,0,0,0-73.3-73.3h-844.99l-.979.02a74.2,74.2,0,0,0-16.973,2.334l-548.635,119.531-274.256,59.75-3.98.973a92.784,92.784,0,0,0-70.872,90.381v298.553Z" transform="translate(-9604.001 -20471.998)" fill="#dfdfdf"/>
</svg>
