<svg xmlns="http://www.w3.org/2000/svg" width="3395.156" height="3288.35" viewBox="0 0 3395.156 3288.35">
  <path id="top-bg-shape" d="M8571.623,10133.811,8001.354,7450.9l2848.365-605.438L11396.51,9417.9h-707.721l-2.069.054a159.1,159.1,0,0,0-18.079,1.419,156.505,156.505,0,0,0-17.771,3.5l-1158.6,252.426L8913.1,9801.478l-8.408,2.053A195.952,195.952,0,0,0,8755.023,9994.4v45.944l0,54.479-183.4,38.983ZM8798,8245.241h0V8595a72.978,72.978,0,0,0,12.519,40.985,73.523,73.523,0,0,0,32.25,26.558,72.852,72.852,0,0,0,28.532,5.761h842.018l.364-.007a76.439,76.439,0,0,0,19.021-2.383l.449-.114.454-.1,822.077-178.506,3.633-.888a95.161,95.161,0,0,0,72.683-92.69V7747a72.954,72.954,0,0,0-12.52-40.983,73.516,73.516,0,0,0-32.251-26.558,72.836,72.836,0,0,0-28.531-5.76H9713.709l-.979.025a74.261,74.261,0,0,0-16.977,2.327l-548.634,119.53-274.256,59.752-3.979.974a92.791,92.791,0,0,0-70.874,90.382v298.553Z" transform="translate(-8001.354 -6845.46)" fill="#dfdfdf"/>
</svg>
