<svg xmlns="http://www.w3.org/2000/svg" width="359.999" height="640.006" viewBox="0 0 359.999 640.006">
  <path id="top-bg-shape2-mobile" d="M4538,21028H4178V20388h360V21028Zm-180.242-580-.179.006a13.512,13.512,0,0,0-3.146.436l-101.709,22.156-50.847,11.08-.734.18a17.194,17.194,0,0,0-13.14,16.754v451.807a13.6,13.6,0,0,0,13.589,13.59h156.167a14.222,14.222,0,0,0,3.525-.443l.08-.021.084-.014,152.4-33.094.675-.166a17.643,17.643,0,0,0,13.473-17.182v-451.5a13.6,13.6,0,0,0-13.589-13.59H4357.758Z" transform="translate(-4178.002 -20387.998)" fill="#dfdfdf"/>
</svg>
