<svg xmlns="http://www.w3.org/2000/svg" width="1834" height="994.605" viewBox="0 0 1834 994.605">
  <path id="window-shape" d="M916.415,0h-.706l-.981.025a74.052,74.052,0,0,0-16.976,2.328L349.119,121.884h0L74.864,181.635l-3.981.972A92.794,92.794,0,0,0,.01,272.992v21.756h0V480.781h0v90.763H0V921.3a73.3,73.3,0,0,0,73.3,73.3H915.32l.365-.005a76.441,76.441,0,0,0,19.019-2.383l.448-.113.455-.1,822.079-178.5,3.63-.889A95.157,95.157,0,0,0,1834,719.919V73.3A73.3,73.3,0,0,0,1760.7,0Z" fill="#dfdfdf"/>
</svg>
