<svg xmlns="http://www.w3.org/2000/svg" width="32" height="32" viewBox="0 0 32 32">
  <g id="telegram" transform="translate(-997 -939)">
    <rect id="Rectangle_33504" data-name="Rectangle 33504" width="32" height="32" transform="translate(997 939)" fill="#fff" opacity="0"/>
    <path id="Path_3850" data-name="Path 3850" d="M77.56,126.319l-19.395,7.558a.707.707,0,0,0,.057,1.337l4.928,1.455,1.839,5.836a.846.846,0,0,0,1.412.338l2.548-2.6,5,3.67a1.043,1.043,0,0,0,1.639-.627L78.9,127.453A1,1,0,0,0,77.56,126.319Zm-2.432,3.513L66.119,137.8a.484.484,0,0,0-.16.308l-.347,3.083a.093.093,0,0,1-.182.017L64,136.609a.484.484,0,0,1,.207-.555l10.638-6.6A.235.235,0,0,1,75.128,129.832Z" transform="translate(943.782 820.61)" fill="#000000"/>
  </g>
</svg>
