<svg xmlns="http://www.w3.org/2000/svg" width="32" height="32" viewBox="0 0 32 32">
  <g id="youtube" transform="translate(-943 -939)">
    <rect id="Rectangle_33502" data-name="Rectangle 33502" width="32" height="32" transform="translate(943 939)" fill="#fff" opacity="0"/>
    <g id="Group_504" data-name="Group 504" transform="translate(950.019 943.6)">
      <path id="Path_3713" data-name="Path 3713" d="M107.411,209.384q-6.311-.135-12.625,0a2.685,2.685,0,0,0-2.627,2.685v6.572a2.685,2.685,0,0,0,2.627,2.686q6.312.135,12.625,0a2.686,2.686,0,0,0,2.628-2.686v-6.572A2.686,2.686,0,0,0,107.411,209.384ZM96.022,219.24H94.809v-6.86H93.552v-1.148h3.729v1.145H96.022Zm4.343-2.847v2.848H99.29v-.651c-.039.041-.061.064-.081.087a1.971,1.971,0,0,1-.828.594,1,1,0,0,1-.5.045.619.619,0,0,1-.487-.387,1.5,1.5,0,0,1-.111-.62c0-.784,0-4.933,0-4.973H98.35c0,.036.006,3.014.007,4.467a1.187,1.187,0,0,0,.016.237.262.262,0,0,0,.377.21,1.171,1.171,0,0,0,.519-.406.188.188,0,0,0,.02-.109v-4.406l1.075,0Zm4.088,2.279a.881.881,0,0,1-.914.648,1.214,1.214,0,0,1-.916-.418l-.1-.111v.449h-1.076v-8.007h1.076v2.636a1.081,1.081,0,0,1,.116-.184,1.236,1.236,0,0,1,.62-.394.933.933,0,0,1,1.116.507,2.08,2.08,0,0,1,.171.9q0,1.679,0,3.358A1.964,1.964,0,0,1,104.452,218.671Zm3.976-.225a1.317,1.317,0,0,1-1.137.932,1.8,1.8,0,0,1-1.026-.1,1.425,1.425,0,0,1-.814-1.037,3.126,3.126,0,0,1-.078-.669c-.009-.877,0-1.754,0-2.631a1.771,1.771,0,0,1,.424-1.233,1.567,1.567,0,0,1,1.341-.517,1.876,1.876,0,0,1,.468.085,1.3,1.3,0,0,1,.888,1.055,3.178,3.178,0,0,1,.059.6c.009.468,0,1.5,0,1.5h-2.061V217.9a.48.48,0,1,0,.96,0v-.76h1.107A5.367,5.367,0,0,1,108.428,218.446Z" transform="translate(-92.159 -199.682)" fill="#000000"/>
      <path id="Path_3714" data-name="Path 3714" d="M310.579,283.875a.48.48,0,1,0-.96,0v.829h.96Z" transform="translate(-295.294 -268.881)" fill="#000000"/>
      <path id="Path_3715" data-name="Path 3715" d="M250.321,283.843a.946.946,0,0,0-.075-.333.359.359,0,0,0-.323-.221.562.562,0,0,0-.441.165.293.293,0,0,0-.074.11l0,3.555h0v.088l.035.046a.705.705,0,0,0,.376.231.364.364,0,0,0,.481-.288.865.865,0,0,0,.02-.179v-.024C250.325,285.943,250.327,284.893,250.321,283.843Z" transform="translate(-239.05 -268.779)" fill="#000000"/>
      <path id="Path_3716" data-name="Path 3716" d="M250.321,283.842a.947.947,0,0,0-.075-.333.359.359,0,0,0-.323-.221.562.562,0,0,0-.441.165.293.293,0,0,0-.074.11h0a.293.293,0,0,1,.074-.11.562.562,0,0,1,.441-.165.359.359,0,0,1,.323.221.946.946,0,0,1,.075.333c.005,1.05,0,2.1,0,3.151C250.325,285.942,250.327,284.892,250.321,283.842Z" transform="translate(-239.05 -268.778)" fill="#000000"/>
      <rect id="Rectangle_569" data-name="Rectangle 569" height="3.555" transform="translate(10.36 14.785)" fill="#000000"/>
      <path id="Path_3717" data-name="Path 3717" d="M250.341,339.767a.364.364,0,0,1-.481.288.706.706,0,0,1-.376-.231l-.035-.046h0l.035.046a.706.706,0,0,0,.376.231.364.364,0,0,0,.481-.288.863.863,0,0,0,.02-.179v0A.863.863,0,0,1,250.341,339.767Z" transform="translate(-239.087 -321.35)" fill="#000000"/>
      <path id="Path_3718" data-name="Path 3718" d="M257.7,100.993a1.488,1.488,0,0,0,.7-.364c.114-.1.218-.213.34-.333v.639h1.1V94.99h-1.1V99.4a.2.2,0,0,1-.017.111,1.175,1.175,0,0,1-.529.407.248.248,0,0,1-.351-.212,1.023,1.023,0,0,1-.015-.18V94.99h-1.093v5.083a1.57,1.57,0,0,0,.071.444A.7.7,0,0,0,257.7,100.993Z" transform="translate(-245.893 -92.887)" fill="#000000"/>
      <path id="Path_3719" data-name="Path 3719" d="M136.73,67.85v3.266h1.156V67.85a.569.569,0,0,1,.023-.161c.431-1.424,1.394-4.619,1.394-4.619h-1.254s-.5,2.128-.74,3.136h0c-.239-1.008-.74-3.136-.74-3.136h-1.254s.963,3.194,1.394,4.619A.567.567,0,0,1,136.73,67.85Z" transform="translate(-132.471 -63.07)" fill="#000000"/>
      <path id="Path_3720" data-name="Path 3720" d="M194.808,97.4a1.577,1.577,0,0,0,3.155,0V94.308a1.577,1.577,0,0,0-3.155,0Zm1.122-3.149a.455.455,0,0,1,.91,0v3.212a.455.455,0,0,1-.91,0Z" transform="translate(-188.046 -90.777)" fill="#000000"/>
    </g>
  </g>
</svg>
